<svg width="55" height="55" viewBox="0 0 55 55" fill="none" xmlns="http://www.w3.org/2000/svg">
<rect x="4" y="4" width="46" height="46" fill="#D9D9D9"/>
<path fill-rule="evenodd" clip-rule="evenodd" d="M5 0C2.23858 0 0 2.23857 0 5V50C0 52.7614 2.23857 55 5 55H50C52.7614 55 55 52.7614 55 50V5C55 2.23858 52.7614 0 50 0H5ZM24.9441 43.8161L11.5328 31.2953C9.27656 29.195 8 26.2485 8 23.1684V22.7379C8 17.55 11.748 13.1266 16.8617 12.2731C20.2461 11.709 23.6898 12.8149 26.1094 15.2344L27 16.125L27.8906 15.2344C30.3102 12.8149 33.7539 11.709 37.1383 12.2731C42.252 13.1266 46 17.55 46 22.7379V23.1684C46 26.2485 44.7234 29.195 42.4672 31.2953L29.0559 43.8161C28.4992 44.3356 27.7645 44.625 27 44.625C26.2355 44.625 25.5008 44.3356 24.9441 43.8161Z" fill="url(#paint0_linear_6_56)"/>
<defs>
<linearGradient id="paint0_linear_6_56" x1="31" y1="31" x2="55" y2="55" gradientUnits="userSpaceOnUse">
<stop stop-color="#3B1AA8"/>
<stop offset="1" stop-color="#D2F8F8"/>
</linearGradient>
</defs>
</svg>
