<svg width="421" height="452" viewBox="0 0 421 452" fill="none" xmlns="http://www.w3.org/2000/svg">
<path d="M87.4562 314.696L88.3884 313.576L89.1225 312.318L212.832 100.241C249.785 56.8111 304.641 50.0746 335.404 75.6823C366.153 101.279 369.489 156.409 333.534 200.616L141.205 363.133L140.032 364.124L139.05 365.304C138.286 366.222 137.541 367.117 136.815 367.99C127.513 379.17 121.229 386.723 116.176 391.857C113.543 394.531 111.858 395.88 110.935 396.535C110.235 396.17 109.168 395.546 107.657 394.498C103.67 391.734 98.992 387.808 92.1889 382.099C90.0787 380.328 87.7641 378.386 85.2023 376.253C74.7538 367.556 68.2351 361.906 64.1926 357.308C62.2883 355.142 61.4462 353.765 61.081 352.999C60.9138 352.648 60.8639 352.46 60.8513 352.407C60.8408 352.364 60.8396 352.348 60.8395 352.315C60.8386 352.056 60.9712 349.614 65.5723 342.636C70.0428 335.856 77.0542 327.192 87.4562 314.696ZM112.018 397.02C112.018 397.02 112.013 397.019 112.001 397.015C112.012 397.018 112.018 397.02 112.018 397.02Z" stroke="#A4A4A4" stroke-width="35"/>
<line x1="193.374" y1="107.626" x2="299.374" y2="213.626" stroke="#A4A4A4" stroke-width="35"/>
</svg>
