<svg width="448" height="448" viewBox="0 0 448 448" fill="none" xmlns="http://www.w3.org/2000/svg">
<path fill-rule="evenodd" clip-rule="evenodd" d="M48 64V384C48 392.8 55.16 400 64 400H384C392.8 400 400 392.8 400 384V64C400 55.16 392.8 48 384 48H64C55.16 48 48 55.16 48 64ZM64 0C28.65 0 0 28.65 0 64V384C0 419.3 28.65 448 64 448H384C419.3 448 448 419.3 448 384V64C448 28.65 419.3 0 384 0H64ZM48 384V64C48 55.16 55.16 48 64 48H384C392.8 48 400 55.16 400 64V384C400 392.8 392.8 400 384 400H64C55.16 400 48 392.8 48 384ZM214 212V94H239V212H345V237H239V336H214V237H103V212L214 212Z" fill="#A4A4A4"/>
</svg>
