<svg width="512" height="450" viewBox="0 0 512 450" fill="none" xmlns="http://www.w3.org/2000/svg">
<path d="M403.8 3.40001C415.8 -1.59999 429.5 1.2 438.7 10.3L502.7 74.3C508.7 80.3 512.1 88.4 512.1 96.9C512.1 105.4 508.7 113.5 502.7 119.5L438.7 183.5C429.5 192.7 415.8 195.4 403.8 190.4C391.8 185.4 384 173.8 384 160.8V129H352C341.9 129 332.4 133.7 326.4 141.8L284 198.3L244 145L275.2 103.4C293.3 79.2 321.8 65 352 65H384V33C384 20.1 391.8 8.40001 403.8 3.40001ZM164 251.7L204 305L172.8 346.6C154.7 370.8 126.2 385 96 385H32C14.3 385 0 370.7 0 353C0 335.3 14.3 321 32 321H96C106.1 321 115.6 316.3 121.6 308.2L164 251.7ZM438.6 439.7C429.4 448.9 415.7 451.6 403.7 446.6C391.7 441.6 383.9 430 383.9 417V385H352C321.8 385 293.3 370.8 275.2 346.6L121.6 141.8C115.6 133.7 106.1 129 96 129H32C14.3 129 0 114.7 0 97C0 79.3 14.3 65 32 65H96C126.2 65 154.7 79.2 172.8 103.4L326.4 308.2C332.4 316.3 341.9 321 352 321H384V289C384 276.1 391.8 264.4 403.8 259.4C415.8 254.4 429.5 257.2 438.7 266.3L502.7 330.3C508.7 336.3 512.1 344.4 512.1 352.9C512.1 361.4 508.7 369.5 502.7 375.5L438.7 439.5L438.6 439.7Z" fill="#A4A4A4"/>
</svg>
