<svg width="54" height="46" viewBox="0 0 54 46" fill="none" xmlns="http://www.w3.org/2000/svg">
<path d="M5.87025 26.2148L5.87156 26.216L24.9296 43.9394C25.4883 44.4588 26.228 44.75 27 44.75C27.772 44.75 28.5116 44.4588 29.0702 43.9395C29.0703 43.9395 29.0703 43.9394 29.0704 43.9394L48.1284 26.216L48.1297 26.2148C51.0804 23.4787 52.75 19.6402 52.75 15.6274V15.0181C52.75 8.28935 47.8695 2.54652 41.2023 1.43789C36.7892 0.705229 32.3002 2.14202 29.1478 5.28223L27.8822 6.54294L27 7.42167L26.1178 6.54294L24.8522 5.28223C21.6998 2.14209 17.211 0.705292 12.798 1.43784L5.87025 26.2148ZM5.87025 26.2148C2.91961 23.4787 1.25 19.6402 1.25 15.6274V15.0181C1.25 8.28935 6.1305 2.54652 12.7977 1.43789L5.87025 26.2148Z" stroke="#A4A4A4" stroke-width="2.5"/>
</svg>
