<svg width="480" height="449" viewBox="0 0 480 449" fill="none" xmlns="http://www.w3.org/2000/svg">
<path d="M409.1 75C452.3 110.2 480 163.9 480 224C480 284.1 452.3 337.8 409.1 373C398.8 381.4 383.7 379.8 375.3 369.5C366.9 359.2 368.5 344.1 378.8 335.7C411.3 309.3 432 269.1 432 224C432 178.9 411.3 138.7 378.8 112.2C368.5 103.8 367 88.7 375.3 78.4C383.6 68.1 398.8 66.6 409.1 74.9V75ZM344.6 149.5C366.1 167.1 377 193.9 377 224C377 254.1 366.1 280.9 344.6 298.5C334.3 306.9 319.2 305.3 310.8 295C302.4 284.7 304 269.6 314.3 261.2C325.1 252.4 332 239 332 224C332 209 325.1 195.6 314.3 186.7C304 178.3 302.5 163.2 310.8 152.9C319.1 142.6 334.3 141.1 344.6 149.4V149.5ZM289.1 2.80002C300.6 8.00002 308 19.4 308 32V416C308 428.6 300.6 440 289.1 445.2C277.6 450.4 264.1 448.3 254.7 439.9L119.8 320H52C16.7 320 -12 291.3 -12 256V192C-12 156.7 16.7 128 52 128H119.8L254.7 8.10002C264.1 -0.299977 277.6 -2.29998 289.1 2.80002Z" fill="#A4A4A4"/>
</svg>
